<svg xmlns="http://www.w3.org/2000/svg" viewBox="90 58 205 245">
<g>
	<path d="M248.3,235.2c0-8.6,0-33.2,0-41.3c0-4.8,0.1-9.5-0.1-14.2c0-0.8-0.5-2.1-1.1-2.5c-10.1-6.2-20.3-12.3-30.9-18.6
		c0,20.1,0,39.7,0,59.7c-4.6-1.2-8.8-2.2-12.9-3.4c-0.6-0.2-1.3-1.4-1.3-2.2c-0.1-14.5-0.1-29.1-0.1-43.6c0-13.8-0.1-27.5-0.1-41.3
		c0-10.6,0.1-21.2,0.1-31.8c0-0.7-0.4-1.8-1-2.2c-1.7-1.2-3.5-2.2-5.8-3.5c0,41.6,0,82.6,0,123.8c-4.3-0.2-8.4-0.3-12.5-0.7
		c-0.6-0.1-1.4-1.7-1.4-2.5c-0.1-8.9-0.1-17.8-0.1-26.7c0-12.1,0.1-24.1,0.1-36.2c0-15.8,0-31.5,0-47.2c0-10.2-0.1-20.4-0.1-30.6
		c0-1,0-1.9,0-3.4c1.4,0.7,2.4,1.1,3.2,1.6c16.1,9.4,32.1,18.8,48.2,28.2c2.5,1.4,3.3,3,3.3,5.9c-0.2,14.7-0.1,29.3-0.1,43.9
		c0,0.5-0.1,1-0.1,2.1c-4.6-2.8-8.9-5.4-13.1-8.1c-0.6-0.4-0.8-1.7-0.8-2.6c-0.1-8.8-0.3-17.6,0.1-26.4c0.2-4.3-1.3-6.7-5.7-7.9
		c0,5.2,0,10.3,0,15.4c0,7.1,0.1,14.2-0.1,21.4c-0.1,2.4,0.7,3.7,2.7,4.9c13.6,7.8,27.2,15.8,40.9,23.6c1.9,1.1,2.6,2.2,2.6,4.4
		c-0.1,12.9,0,70.3,0.1,83.1"/>
	<path d="M94.2,258.5c0-1.9,0-3.9,0-5.8c0.1-30.6,0.4-61.2-0.1-91.8c-0.1-6.8,1.9-10.4,7.7-13.6c10.3-5.7,20-12.3,29.9-18.7
		c1-0.6,1.7-2.4,1.8-3.6c0.1-10.1,0.1-20.2-0.1-30.3c-0.1-2.5,0.6-3.9,2.8-5.2c12.1-7,24-14.2,36-21.4c0.8-0.5,1.7-0.9,2.8-1.5
		c0,49.1,0,97.8,0,146.9c-4.6,0-9,0-13.6,0c0-21.4,0-42.8,0-65.1c-4.8,3.2-9.2,6-13.4,9c-0.5,0.4-0.4,1.8-0.4,2.8
		c0,17.1-0.1,34.2,0.1,51.4c0,2.4-0.4,3.5-3,3.9c-3.6,0.5-7.1,1.8-11.1,2.8c0-1.3,0-2.4,0-3.4c0-20.5,0.1-41,0.1-61.5
		c0-2.5,0.8-3.9,2.9-5.2c7.9-4.9,15.8-9.8,23.6-14.9c0.7-0.4,1.4-1.5,1.4-2.3c0-13.2-0.1-26.3-0.2-39.5c0-0.2-0.2-0.3-0.4-0.8
		c-4.1,2.5-8.3,4.9-12.3,7.5c-0.5,0.3-0.8,1.4-0.8,2.1c-0.1,5.6,0,11.3,0,17.6c2.8-1.8,5.4-3.4,8.4-5.4c0,5.6,0.1,10.8-0.1,16
		c0,0.6-1.1,1.3-1.8,1.8c-14.6,9.3-29.2,18.6-43.9,27.8c-1.7,1-2.2,2.2-2.2,4c0.1,23.4,0,46.7,0.1,70.1c0,2.8-0.8,5-2.3,7.4
		C101.8,245.6,98.2,252,94.2,258.5z"/>
	<path d="M113.8,229.3c0-5.5,0-10.4,0-15.3c0-16.3-0.1-32.6,0.1-48.9c0-1.2,0.8-2.9,1.8-3.5c3.8-2.6,7.8-4.9,12.3-7.7
		c0,6.6,0,12.7,0,18.8c0,15.6,0.1,31.2,0,46.8c0,0.9-0.7,2.1-1.5,2.5C122.5,224.3,118.4,226.6,113.8,229.3z"/>
	<path d="M235.9,225.2c-0.7,0-10.2,1.7-13.7-5.7c-0.5-1-0.4-2.3-0.4-3.5c0-16.6,0-27.3,0-43.9c0-1,0.1-1.9,0.1-3.5
		c4.7,2.8,9,5.3,13.3,7.9c0.5,0.3,0.7,1.6,0.7,2.4c0.1,13.5,0,27.1,0.1,40.7"/>
</g>
<g>
	<path d="M166.7,268.1c0,6.8,0,13,0,19.5c12.2,0,24.1,0,36.4,0c0,3.3,0.1,6.3-0.1,9.3c-0.1,0.5-1.7,1.3-2.6,1.4
		c-8.1,0.1-16.2,0.1-24.3,0.1c-6,0-12.1-0.2-18.1,0.1c-3,0.1-3.9-0.8-4-3.8c-0.3-15.3-0.8-30.5-1.3-45.8c-0.2-7.7-0.5-15.3-0.8-23
		c-0.1-2,0.4-2.9,2.5-3.3c14.8-2.9,29.4-2.8,44,1.1c2,0.5,2.8,1.5,2.7,3.4c-0.1,2.9,0,5.9,0,9.2c-11.9-4-23.9-6-36.1-3.6
		c0,7.5,0,14.6,0,21.8c0,2.1,1.5,2,2.9,2c10,0,20,0,29.9,0c4.5,0,4.5,0,4.5,4.5c0,7.2,0,7.2-7.4,7.2c-8.4,0-16.8,0-25.2,0
		C168.9,268.1,167.9,268.1,166.7,268.1z"/>
	<path d="M109.5,298.5c-3.8,0-7.1-0.1-10.3,0c-1.9,0-1.9-1.2-2-2.5c-1-16.4,3-31.1,13.3-44.1c9.6-12.3,21.5-21.3,36-27
		c0.3-0.1,0.6-0.1,1.3-0.2c0.2,0.9,0.4,1.8,0.4,2.7c0.8,22.8,1.5,45.6,2.3,68.5c0.1,1.9-0.5,2.7-2.5,2.6c-2.6-0.1-5.3-0.1-8,0
		c-2.1,0.1-2.5-0.9-2.5-2.6c0.1-2.3-0.1-4.5,0-6.8c0.1-2-0.7-2.5-2.6-2.5c-7.6,0.1-15.2,0.1-22.8,0c-2.2,0-2.7,0.8-2.6,2.8
		C109.6,292.2,109.5,295.2,109.5,298.5z M112.9,274.1c6.4,0,12.1,0,17.7,0c6.4,0,6.5,0,6.3-6.3c-0.3-7.7-0.7-15.4-1.1-23.7
		C124.8,251.7,118.3,261.9,112.9,274.1z"/>
	<path d="M218.1,244.2c0,5.2-0.2,10.3,0,15.4c0.4,11.1,1,22.2,1.5,33.3c0.2,4.5-0.8,5.4-5.3,5.4c-7.3,0.1-7.4,0.1-7.5-7.1
		c-0.6-20.7-1.1-41.3-1.7-62c0-1,0-2.1,0-3.4c7.4,2.1,13.5,5.6,19.3,9.7c3.6,2.5,7,5.2,7.7,9.9c0.3,1.9,1.5,2.7,3.4,2.4
		c2.2-0.3,3.7,0.7,5,2.4c9.2,11.7,16.2,24.4,18.4,39.3c0.3,2.1,0.3,4.3,0.5,6.5c0.2,1.9-0.7,2.3-2.5,2.3c-6,0.1-6.8-0.3-7.7-6
		c-1.5-9.6-4.2-18.8-10-26.9c-0.5-0.6-1-1.3-1.5-1.9c-0.2-0.2-0.5-0.3-0.9-0.5c0,3.5,0,6.9,0,10.3c0,2.3,0.1,4.5,0.3,6.8
		c0.3,2.8-1.3,3.6-3.6,3.8c-3.4,0.2-5.3-0.8-5.4-3.5c-0.3-7.4-1.1-14.8-0.5-22.1c0.7-7.7-3.9-11.1-9.4-14.3
		C218.5,244.1,218.4,244.1,218.1,244.2z"/>
</g>
</svg>
