<svg fill="#1a1a22" xmlns="http://www.w3.org/2000/svg" viewBox="70 40 860 280">
<g fill="#1a1a22">
	<path d="M248.3,235.2c0-8.6,0-33.2,0-41.3c0-4.8,0.1-9.5-0.1-14.2c0-0.8-0.5-2.1-1.1-2.5c-10.1-6.2-20.3-12.3-30.9-18.6
		c0,20.1,0,39.7,0,59.7c-4.6-1.2-8.8-2.2-12.9-3.4c-0.6-0.2-1.3-1.4-1.3-2.2c-0.1-14.5-0.1-29.1-0.1-43.6c0-13.8-0.1-27.5-0.1-41.3
		c0-10.6,0.1-21.2,0.1-31.8c0-0.7-0.4-1.8-1-2.2c-1.7-1.2-3.5-2.2-5.8-3.5c0,41.6,0,82.6,0,123.8c-4.3-0.2-8.4-0.3-12.5-0.7
		c-0.6-0.1-1.4-1.7-1.4-2.5c-0.1-8.9-0.1-17.8-0.1-26.7c0-12.1,0.1-24.1,0.1-36.2c0-15.8,0-31.5,0-47.2c0-10.2-0.1-20.4-0.1-30.6
		c0-1,0-1.9,0-3.4c1.4,0.7,2.4,1.1,3.2,1.6c16.1,9.4,32.1,18.8,48.2,28.2c2.5,1.4,3.3,3,3.3,5.9c-0.2,14.7-0.1,29.3-0.1,43.9
		c0,0.5-0.1,1-0.1,2.1c-4.6-2.8-8.9-5.4-13.1-8.1c-0.6-0.4-0.8-1.7-0.8-2.6c-0.1-8.8-0.3-17.6,0.1-26.4c0.2-4.3-1.3-6.7-5.7-7.9
		c0,5.2,0,10.3,0,15.4c0,7.1,0.1,14.2-0.1,21.4c-0.1,2.4,0.7,3.7,2.7,4.9c13.6,7.8,27.2,15.8,40.9,23.6c1.9,1.1,2.6,2.2,2.6,4.4
		c-0.1,12.9,0,70.3,0.1,83.1"/>
	<path d="M94.2,258.5c0-1.9,0-3.9,0-5.8c0.1-30.6,0.4-61.2-0.1-91.8c-0.1-6.8,1.9-10.4,7.7-13.6c10.3-5.7,20-12.3,29.9-18.7
		c1-0.6,1.7-2.4,1.8-3.6c0.1-10.1,0.1-20.2-0.1-30.3c-0.1-2.5,0.6-3.9,2.8-5.2c12.1-7,24-14.2,36-21.4c0.8-0.5,1.7-0.9,2.8-1.5
		c0,49.1,0,97.8,0,146.9c-4.6,0-9,0-13.6,0c0-21.4,0-42.8,0-65.1c-4.8,3.2-9.2,6-13.4,9c-0.5,0.4-0.4,1.8-0.4,2.8
		c0,17.1-0.1,34.2,0.1,51.4c0,2.4-0.4,3.5-3,3.9c-3.6,0.5-7.1,1.8-11.1,2.8c0-1.3,0-2.4,0-3.4c0-20.5,0.1-41,0.1-61.5
		c0-2.5,0.8-3.9,2.9-5.2c7.9-4.9,15.8-9.8,23.6-14.9c0.7-0.4,1.4-1.5,1.4-2.3c0-13.2-0.1-26.3-0.2-39.5c0-0.2-0.2-0.3-0.4-0.8
		c-4.1,2.5-8.3,4.9-12.3,7.5c-0.5,0.3-0.8,1.4-0.8,2.1c-0.1,5.6,0,11.3,0,17.6c2.8-1.8,5.4-3.4,8.4-5.4c0,5.6,0.1,10.8-0.1,16
		c0,0.6-1.1,1.3-1.8,1.8c-14.6,9.3-29.2,18.6-43.9,27.8c-1.7,1-2.2,2.2-2.2,4c0.1,23.4,0,46.7,0.1,70.1c0,2.8-0.8,5-2.3,7.4
		C101.8,245.6,98.2,252,94.2,258.5z"/>
	<path d="M113.8,229.3c0-5.5,0-10.4,0-15.3c0-16.3-0.1-32.6,0.1-48.9c0-1.2,0.8-2.9,1.8-3.5c3.8-2.6,7.8-4.9,12.3-7.7
		c0,6.6,0,12.7,0,18.8c0,15.6,0.1,31.2,0,46.8c0,0.9-0.7,2.1-1.5,2.5C122.5,224.3,118.4,226.6,113.8,229.3z"/>
	<path d="M235.9,225.2c-0.7,0-10.2,1.7-13.7-5.7c-0.5-1-0.4-2.3-0.4-3.5c0-16.6,0-27.3,0-43.9c0-1,0.1-1.9,0.1-3.5
		c4.7,2.8,9,5.3,13.3,7.9c0.5,0.3,0.7,1.6,0.7,2.4c0.1,13.5,0,27.1,0.1,40.7"/>
</g>
<g fill="#1a1a22">
	<g fill="#1a1a22">
		<path d="M166.7,268.1c0,6.8,0,13,0,19.5c12.2,0,24.1,0,36.4,0c0,3.3,0.1,6.3-0.1,9.3c-0.1,0.5-1.7,1.3-2.6,1.4
			c-8.1,0.1-16.2,0.1-24.3,0.1c-6,0-12.1-0.2-18.1,0.1c-3,0.1-3.9-0.8-4-3.8c-0.3-15.3-0.8-30.5-1.3-45.8c-0.2-7.7-0.5-15.3-0.8-23
			c-0.1-2,0.4-2.9,2.5-3.3c14.8-2.9,29.4-2.8,44,1.1c2,0.5,2.8,1.5,2.7,3.4c-0.1,2.9,0,5.9,0,9.2c-11.9-4-23.9-6-36.1-3.6
			c0,7.5,0,14.6,0,21.8c0,2.1,1.5,2,2.9,2c10,0,20,0,29.9,0c4.5,0,4.5,0,4.5,4.5c0,7.2,0,7.2-7.4,7.2c-8.4,0-16.8,0-25.2,0
			C168.9,268.1,167.9,268.1,166.7,268.1z"/>
		<path d="M109.5,298.5c-3.8,0-7.1-0.1-10.3,0c-1.9,0-1.9-1.2-2-2.5c-1-16.4,3-31.1,13.3-44.1c9.6-12.3,21.5-21.3,36-27
			c0.3-0.1,0.6-0.1,1.3-0.2c0.2,0.9,0.4,1.8,0.4,2.7c0.8,22.8,1.5,45.6,2.3,68.5c0.1,1.9-0.5,2.7-2.5,2.6c-2.6-0.1-5.3-0.1-8,0
			c-2.1,0.1-2.5-0.9-2.5-2.6c0.1-2.3-0.1-4.5,0-6.8c0.1-2-0.7-2.5-2.6-2.5c-7.6,0.1-15.2,0.1-22.8,0c-2.2,0-2.7,0.8-2.6,2.8
			C109.6,292.2,109.5,295.2,109.5,298.5z M112.9,274.1c6.4,0,12.1,0,17.7,0c6.4,0,6.5,0,6.3-6.3c-0.3-7.7-0.7-15.4-1.1-23.7
			C124.8,251.7,118.3,261.9,112.9,274.1z"/>
		<path d="M218.1,244.2c0,5.2-0.2,10.3,0,15.4c0.4,11.1,1,22.2,1.5,33.3c0.2,4.5-0.8,5.4-5.3,5.4c-7.3,0.1-7.4,0.1-7.5-7.1
			c-0.6-20.7-1.1-41.3-1.7-62c0-1,0-2.1,0-3.4c7.4,2.1,13.5,5.6,19.3,9.7c3.6,2.5,7,5.2,7.7,9.9c0.3,1.9,1.5,2.7,3.4,2.4
			c2.2-0.3,3.7,0.7,5,2.4c9.2,11.7,16.2,24.4,18.4,39.3c0.3,2.1,0.3,4.3,0.5,6.5c0.2,1.9-0.7,2.3-2.5,2.3c-6,0.1-6.8-0.3-7.7-6
			c-1.5-9.6-4.2-18.8-10-26.9c-0.5-0.6-1-1.3-1.5-1.9c-0.2-0.2-0.5-0.3-0.9-0.5c0,3.5,0,6.9,0,10.3c0,2.3,0.1,4.5,0.3,6.8
			c0.3,2.8-1.3,3.6-3.6,3.8c-3.4,0.2-5.3-0.8-5.4-3.5c-0.3-7.4-1.1-14.8-0.5-22.1c0.7-7.7-3.9-11.1-9.4-14.3
			C218.5,244.1,218.4,244.1,218.1,244.2z"/>
	</g>
</g>
<g fill="#1a1a22">
	<path d="M335.8,207c-7-1.2-12.2-3.4-15.5-6.7c-3.3-3.3-4.9-7.6-4.9-12.8c0-5,1-9.7,2.9-14.3c1.9-4.5,4.4-8.8,7.4-12.7
		c3-4,6.3-7.6,10-11c3.7-3.4,7.3-6.4,11-9.2c10.2-7,21.2-12.3,32.8-15.7c11.6-3.4,23.5-5.2,35.5-5.2c4.5,0,9.3,0.5,14.2,1.4
		c4.9,1,9.4,2.5,13.5,4.6c4.1,2.1,7.5,4.8,10.1,8.1c2.6,3.3,4,7.3,4,12c0,3.5-0.5,6.7-1.5,9.7c-2.9,7.6-7.1,14.6-12.6,21.1
		c-5.5,6.4-11.8,12-18.8,16.8c-7,4.8-14.6,8.6-22.7,11.4c-8.1,2.9-16.2,4.6-24.3,5.2c3.1,4.5,6.4,9.2,10,13.8
		c3.6,4.7,7.2,8.9,11,12.7c3.7,3.8,7.5,6.9,11.4,9.3c3.9,2.4,7.7,3.6,11.5,3.6c0.7,0,2.5,0,5.2,0c2.7,0,6.1-0.7,10.2-2.2
		c0.1,1.5,0.3,2.6,0.3,3.5c0.1,0.9,0.1,2,0.1,3.5c-3.5,1.6-7.2,2.8-11.2,3.6c-4,0.8-7,1.2-9.2,1.2c-4.4,0-8.5-0.9-12.3-2.7
		c-3.8-1.8-7.4-4.1-10.7-6.9c-3.3-2.8-6.3-5.9-9-9.2c-2.7-3.4-5.2-6.6-7.6-9.7l-2.2-3.7c-1-1.3-2-2.8-3-4.4c-1-1.6-1.9-3.1-3-4.4
		l-2.2-3.1c-0.9,1.8-1.7,3.5-2.5,5.3c-0.8,1.8-1.6,3.5-2.3,5.3V225l-1.1,2.9l-4.4,10.1l-10.5,22.8c-2.6-1.6-4.5-3.3-5.6-4.9
		c-1.1-1.7-1.6-3.3-1.6-4.9c0-2.3,0.3-4.3,0.9-5.9l11-25.3l0.7-1.5c0.7-1.8,1.6-3.7,2.7-5.9s2-4.1,2.7-5.7c-0.1-0.3-0.2-0.7-0.2-1.1
		c-0.1,0-0.2-0.1-0.2-0.2v-0.4c-0.3-0.9-0.6-2-0.9-3.3c-0.3-1.3-1-3.4-2.2-6.4l10.1,0.9l10.5-16.9l24.8-42.4l5.7,4.8h-0.2l4,3.3
		L374,199.5l5.1-1.1h-0.2c2.8-0.4,5.5-0.9,8.2-1.4c2.7-0.5,5.5-1.4,8.2-2.5c9.8-3.5,18.5-8.4,26.1-14.7c7.6-6.3,13.8-13.8,18.7-22.6
		c2.9-4.7,4.4-9.1,4.4-13.2c0-5.4-2.9-9.2-8.7-11.3c-5.8-2.1-13.4-3.2-22.7-3.2c-11.4,0-22.7,1.9-33.7,5.8
		c-11.1,3.9-21.1,9.5-30.2,16.8h0.2c-2.6,2.2-5.3,4.9-8.1,8c-2.8,3.2-5.3,6.4-7.5,9.7c-2.2,3.3-4,6.5-5.5,9.6
		c-1.5,3.1-2.2,5.6-2.2,7.7c0,2.3,1,4.7,2.9,7.1c1.9,2.4,4.8,5.3,8.6,8.7L335.8,207z"/>
	<path d="M480.1,208.7l-0.2,0.7c0.1-0.1,0.2-0.1,0.1,0.1c-0.1,0.2-0.2,0.5-0.3,0.8c0,0.4,0,0.7-0.1,0.8c-0.1,0.1-0.3,0.3-0.5,0.5
		c-0.4,0.9-1,1.9-1.8,3.2c-0.7,1.2-1.7,2.2-2.9,3c-2.5,1.6-4.9,3-7.2,4.2c-2.3,1.2-4.2,2.1-5.5,2.6c-3.4,1.2-6.5,2.6-9.4,4.3
		c-2.9,1.7-4.4,3.8-4.4,6.3c0,1,0.7,1.7,2,2c1.3,0.3,2.9,0.4,4.8,0.4c2.9,0,5.9-0.5,9-1.6c3.1-1.1,6.1-2.4,9.2-3.8l1.3-0.7
		c1-0.4,2.2-0.9,3.4-1.4c1.2-0.5,2.8-1,4.6-1.4c1.8-0.4,4.1-0.9,6.9-1.3c2.8-0.4,6.1-0.9,10.1-1.3c-8.1,6-15.7,11-23,15
		c-7.2,4-14.6,6-22.1,6c-5.4,0-9.8-1-13.3-2.9c-3.4-1.9-5.2-4.9-5.2-9c0-1,0.2-2.3,0.5-3.7c0.4-1.5,0.8-2.9,1.4-4.4
		c1.5-2.6,3.3-5.4,5.4-8.3c2.1-2.9,4.5-5.6,7.1-8c2.6-2.4,5.6-4.4,8.8-6c3.2-1.6,6.6-2.4,10.1-2.4h1.8c1.6-0.1,3.2,0,4.7,0.4
		c1.5,0.4,3.1,2.1,4.7,4.8L480.1,208.7z M471.5,209.8c-2.9,0-5.7,0.9-8.2,2.7c-2.6,1.8-4.4,4-5.4,6.5c3.5-1.2,6.5-2.5,8.9-4
		c2.4-1.5,4.9-3.1,7.4-4.8C473,210,472.1,209.8,471.5,209.8z"/>
	<path d="M478.3,243.2c0-1.5,0.5-3,1.5-4.7c1-1.7,2.3-3.4,3.8-5.1c1.5-1.7,3.3-3.3,5.3-4.9c2-1.6,3.9-3.1,5.8-4.6h-0.2l3.5-3.1
		c-1-4-1.5-7.5-1.5-10.5c0-4.8,1.4-8.6,4.2-11.3c2.8-2.7,7.1-5.5,13-8.2c2.3-0.9,4.4-1.6,6.3-2.1c1.8-0.5,3.7-0.8,5.6-0.8
		c2.9,0,5.5,0.9,7.7,2.6c2.2,1.8,4.1,4.6,5.7,8.6c-3.4,0.3-6.8,0.7-10.3,1.2c-3.5,0.5-6.8,1.2-9.8,2.1c-3,0.9-5.5,2-7.4,3.4
		c-1.9,1.4-2.9,3-2.9,4.9c0,1,0.5,2.8,1.5,5.3l36-4.6v7.2l-33.6,7.2c0.1,0.7,0.2,1.4,0.1,2.1c-0.1,0.7-0.1,1.4-0.1,2.1
		c0,2.8-0.6,5.5-1.8,8.2c-1.2,2.7-2.8,5.2-4.8,7.4c-2.1,2.2-4.6,4-7.6,5.3c-3,1.3-6.3,2-9.8,2c-3.7,0-6.3-0.9-7.9-2.6
		C479.1,248.5,478.3,246.2,478.3,243.2z M489.3,242.4c3.4,0,6.2-1.1,8.5-3.2c2.3-2.1,3.5-4.9,3.6-8.5c-2.5,1.6-4.8,3.3-6.9,5.2
		c-2.1,1.8-3.9,4-5.4,6.5H489.3z"/>
	<path d="M557.4,220.8c-1.6,2.5-3.1,5.2-4.5,8c-1.4,2.9-2.2,6.2-2.3,10c9.7-0.9,19-3.4,28-7.7c9-4.2,18.6-9.2,28.7-14.9
		c-1.8,3.8-5.2,7.6-10.3,11.4c-5.1,3.8-10.8,7.2-16.9,10.1c-6.1,2.9-12.3,5.3-18.6,7.1c-6.2,1.8-11.3,2.7-15.3,2.7
		c-2.6-1.5-4.6-3.1-5.8-5.1c-1.2-1.9-1.9-3.9-1.9-5.9c0-3.2,0.9-7,2.7-11.2c1.8-4.2,3.8-8.3,5.8-12.1l0.2-0.2
		c0.7-0.9,1.5-2.1,2.2-3.6c0.7-1.5,1.2-3,1.5-4.3l1.1-3.7l4.8,1.1l4.4,0.7c0.3,0.1,0.9,0.2,1.8,0.2c0.9,0,1.8,0,2.9,0
		c-0.7,3.1-1.9,6.1-3.6,9.1C560.6,215.6,559,218.3,557.4,220.8z M571.4,183.1c0,0.3,0,0.6,0.1,1c0.1,0.4,0.1,0.7,0.1,1
		c0.1,0.6,0.3,1.1,0.3,1.5c0.1,0.4,0.1,0.9,0.1,1.3c0,3.8-1,6.6-2.9,8.2c-1.9,1.7-4.3,2.5-7.2,2.5c-0.9,0-1.8,0-2.7-0.1
		c-1-0.1-2.8-0.5-5.6-1.2l7.2-8.1l7-7.2L571.4,183.1z"/>
	<path d="M625,204.1c2.2,0,4.5,0.4,7,1.3l1.1,0.4l0.9,0.4c6.9-10.2,13.8-20.1,20.6-29.4c6.9-9.4,13.8-18.2,20.9-26.4v0.2
		c0.7-1.2,1.3-1.9,1.8-2.2c0.4-0.3,1-0.6,1.8-0.9l1.1-0.4h-0.2l5.7-2l1.1,3.1c0.3,0.3,0.6,0.7,1,1.1c0.4,0.4,0.7,0.7,1,0.9
		l-9.7,13.4c-6.7,10-13.6,20.1-20.5,30.5c-7,10.4-13.7,20.6-20.1,30.7c-2.5,3.8-4.6,7.9-6.4,12.4c-1.8,4.5-2.6,9.4-2.6,14.8
		c0,1.3,0.1,2.1,0.2,2.4c0.1,0.3,0.5,0.6,1.1,0.9l4.6,2.9c-1.5,2.6-2.6,4.2-3.5,4.6c-0.9,0.4-1.9,0.7-3.1,0.7
		c-2.8,0-5.2-0.9-7.4-2.7c-2.1-1.8-3.2-4.6-3.2-8.2c0-3.4,0.4-6.7,1.1-10.1c0.7-3.4,1.5-6.7,2.4-9.9c0-0.3,0-0.4,0-0.3
		c0,0.1,0.1-0.2,0.2-0.8c-3.4,2.6-7.2,5.1-11.5,7.4c-4.3,2.3-8.6,3.4-12.8,3.4c-5,0-7.5-2.4-7.5-7.2c0-2,0.4-4,1.1-5.7
		c1.3-3.1,3.1-6.1,5.4-9.1c2.3-3,4.9-5.7,7.9-8.1c3-2.4,6.2-4.4,9.7-5.8C617.6,204.9,621.2,204.1,625,204.1z M627.2,215.1
		c-2.3,0.1-4.7,0.7-7,1.6c-2.3,1-4.5,2.2-6.5,3.7c-2,1.5-3.8,3.3-5.4,5.2c-1.6,1.9-2.8,3.8-3.5,5.7l14.9-10.5v-0.2
		c0.7-0.4,1.9-1.2,3.4-2.3C624.7,217.2,626,216.1,627.2,215.1z"/>
	<path d="M702.5,208.7l-0.2,0.7c0.1-0.1,0.2-0.1,0.1,0.1c-0.1,0.2-0.2,0.5-0.3,0.8c0,0.4,0,0.7-0.1,0.8c-0.1,0.1-0.3,0.3-0.5,0.5
		c-0.4,0.9-1,1.9-1.8,3.2c-0.7,1.2-1.7,2.2-2.9,3c-2.5,1.6-4.9,3-7.2,4.2c-2.3,1.2-4.2,2.1-5.5,2.6c-3.4,1.2-6.5,2.6-9.4,4.3
		c-2.9,1.7-4.4,3.8-4.4,6.3c0,1,0.7,1.7,2,2c1.3,0.3,2.9,0.4,4.8,0.4c2.9,0,5.9-0.5,9-1.6c3.1-1.1,6.1-2.4,9.2-3.8l1.3-0.7
		c1-0.4,2.2-0.9,3.4-1.4c1.2-0.5,2.8-1,4.6-1.4c1.8-0.4,4.1-0.9,6.9-1.3c2.8-0.4,6.2-0.9,10.1-1.3c-8.1,6-15.7,11-23,15
		c-7.2,4-14.6,6-22.1,6c-5.4,0-9.8-1-13.3-2.9s-5.2-4.9-5.2-9c0-1,0.2-2.3,0.5-3.7c0.4-1.5,0.8-2.9,1.4-4.4c1.5-2.6,3.3-5.4,5.4-8.3
		c2.1-2.9,4.5-5.6,7.1-8c2.6-2.4,5.6-4.4,8.8-6c3.2-1.6,6.6-2.4,10.1-2.4h1.8c1.6-0.1,3.2,0,4.7,0.4s3.1,2.1,4.7,4.8L702.5,208.7z
		 M694,209.8c-2.9,0-5.7,0.9-8.2,2.7c-2.6,1.8-4.4,4-5.4,6.5c3.5-1.2,6.5-2.5,8.9-4c2.4-1.5,4.9-3.1,7.4-4.8
		C695.4,210,694.6,209.8,694,209.8z"/>
	<path d="M728.5,225c0.3-0.1,0.7-0.5,1.3-1.1l0.7-0.7v0.2l5.3-3.3c1.9-1.3,3.9-2.7,6-4.2c2.1-1.5,4.2-2.8,6.3-4.1
		c2-1.2,3.9-2.4,5.6-3.4c1.7-1,3-1.8,4.1-2.4c1.9-1,4.2-1.6,7-1.8c0.1,0,0.2,0,0.2-0.1c0-0.1,0.1-0.1,0.2-0.1l5.3-0.7l4,4.1l-4,13.7
		l-2.4,7.2c1,1,1.8,1.7,2.4,2c0.6,0.3,1.4,0.4,2.4,0.4c2.5,0,5.5-0.5,9.1-1.4c3.6-1,7.1-2.1,10.7-3.4c3.5-1.3,6.8-2.6,9.8-4
		c3-1.3,5.2-2.3,6.5-3.1l4.2,4.6c-6.1,6.6-13,11.2-20.6,13.6c-7.6,2.5-15.2,3.7-22.6,3.7c-8.9,0-13.4-4.1-13.4-12.3
		c0-1.6,0.1-3,0.3-4.1c0.2-1.1,0.5-2.2,1-3.4c0.1-0.7,0.3-1.7,0.5-3c0.2-1.2,0.3-1.6,0.1-1L741,228.1l-28.6,17.1
		c-1.2,0-2.9-0.5-5.3-1.5c-0.6,0-1-0.1-1.2-0.2c-0.2-0.1-0.5-0.3-0.8-0.4l-3.1-1.1l6.4-8.8c3.1-4.2,6.3-8.7,9.7-13.4
		c3.4-4.7,6.5-8.9,9.4-12.5c0.3,0,0.9-0.2,1.8-0.7l1.8-0.7l4.4-0.4l1.3,3.1v-0.2l1.3,2L728.5,225z M727.4,207l-0.4,1.1
		C726.9,207.7,727.1,207.3,727.4,207z"/>
	<path d="M873.6,220.8c0,0.3,0,0.6-0.1,0.9c-0.1,0.3-0.1,0.6-0.1,0.9c0,0.9-0.1,1.6-0.2,2.1c-0.1,0.5-0.6,1.1-1.3,1.9h0.2
		c-8.6,7.9-17.8,13.9-27.3,17.9c-9.6,4-20.4,6-32.4,6c-4.2,0-7.2-1-9-3s-2.6-5-2.6-9.1c0-3.5,0.9-7.3,2.7-11.4
		c1.8-4.1,4.2-7.9,7.2-11.4c3-3.5,6.3-6.4,9.9-8.8c3.6-2.3,7.1-3.5,10.7-3.5h1.1c2,0,4.1,0.2,6.1,0.7c2,0.4,3.7,2,4.8,4.6l-5.1,12.3
		c-2.6-0.9-4.4-2-5.2-3.4c-0.8-1.4-1.2-2.8-1.2-4.3c-2.3,1-4.6,2.5-6.7,4.5c-2.1,2-4,4.2-5.7,6.8c-1.7,2.6-3.1,5.3-4.2,8.1
		c-1.1,2.9-1.7,5.6-1.9,8.2c5.9-0.7,11.2-1.6,16.1-2.5c4.9-1,9.6-2.2,14.1-3.7c4.5-1.5,8.8-3.6,13.1-6.1c4.2-2.6,8.8-5.8,13.6-9.8
		L873.6,220.8z"/>
	<path d="M904.6,208.7l-0.2,0.7c0.1-0.1,0.2-0.1,0.1,0.1c-0.1,0.2-0.2,0.5-0.3,0.8c0,0.4,0,0.7-0.1,0.8c-0.1,0.1-0.3,0.3-0.5,0.5
		c-0.4,0.9-1,1.9-1.8,3.2c-0.7,1.2-1.7,2.2-2.9,3c-2.5,1.6-4.9,3-7.2,4.2c-2.3,1.2-4.2,2.1-5.5,2.6c-3.4,1.2-6.5,2.6-9.4,4.3
		c-2.9,1.7-4.4,3.8-4.4,6.3c0,1,0.7,1.7,2,2c1.3,0.3,2.9,0.4,4.8,0.4c2.9,0,5.9-0.5,9-1.6c3.1-1.1,6.1-2.4,9.2-3.8l1.3-0.7
		c1-0.4,2.2-0.9,3.4-1.4c1.2-0.5,2.8-1,4.6-1.4c1.8-0.4,4.1-0.9,6.9-1.3c2.8-0.4,6.2-0.9,10.1-1.3c-8.1,6-15.7,11-23,15
		c-7.2,4-14.6,6-22.1,6c-5.4,0-9.8-1-13.3-2.9s-5.2-4.9-5.2-9c0-1,0.2-2.3,0.5-3.7c0.4-1.5,0.8-2.9,1.4-4.4c1.5-2.6,3.3-5.4,5.4-8.3
		c2.1-2.9,4.5-5.6,7.1-8c2.6-2.4,5.6-4.4,8.8-6c3.2-1.6,6.6-2.4,10.1-2.4h1.8c1.6-0.1,3.2,0,4.7,0.4s3.1,2.1,4.7,4.8L904.6,208.7z
		 M896,209.8c-2.9,0-5.7,0.9-8.2,2.7c-2.6,1.8-4.4,4-5.4,6.5c3.5-1.2,6.5-2.5,8.9-4c2.4-1.5,4.9-3.1,7.4-4.8
		C897.5,210,896.6,209.8,896,209.8z"/>
</g>
</svg>
